<svg xmlns="http://www.w3.org/2000/svg" viewBox="0 0 512.003 512.003"><path fill="#ccd6dd" d="M85.334 7.113H14.222v71.11l327.113 327.113 71.111-71.111z"/><path fill="#9aaab4" d="M14.223 7.111v71.111l327.11 327.113 35.557-35.555z"/><path d="M457.139 476.85c11.107 11.107 26.112 14.109 33.521 6.713 7.41-7.41 4.409-22.415-6.699-33.537l-73.757-87.154c-11.094-11.107-26.126-14.108-33.508-6.698l-13.425 13.397c-7.395 7.424-4.394 22.415 6.713 33.521l87.155 73.758z" fill="#642116"/><path d="M319.696 423.211c8.335 8.335 21.846 8.335 30.166 0l80.47-80.441c8.335-8.335 8.32-21.846 0-30.18-8.335-8.32-21.846-8.335-30.18 0l-80.455 80.455c-8.32 8.335-8.32 21.846 0 30.166" fill="#bf6952"/><path d="M445.42 498.64c8.32 8.335 21.831 8.335 30.166 0l30.166-30.166c8.335-8.335 8.335-21.846 0-30.18-8.335-8.32-21.83-8.335-30.166 0l-30.166 30.18c-8.334 8.322-8.334 21.833 0 30.166" fill="#fcab40"/><path fill="#ccd6dd" d="M99.549 334.225l71.107 71.111L497.78 78.224V7.113h-71.105z"/><path fill="#9aaab4" d="M135.109 369.784l35.558 35.552L497.78 78.224V7.112z"/><g fill="#642116"><path d="M21.339 483.563h.001l-.001-.002zM142.014 403.094l-40.223-40.217-64.532 76.254 28.491 28.504z"/></g><path d="M162.134 423.21c8.32 8.335 21.846 8.335 30.166 0 8.32-8.32 8.32-21.831 0-30.166l-80.455-80.455c-8.335-8.335-21.831-8.32-30.166 0-8.335 8.335-8.335 21.846 0 30.18l20.112 20.107 40.224 40.217 20.119 20.117z" fill="#bf6952"/><path d="M66.59 468.476l-.841-.841-28.49-28.504-.835-.835c-8.335-8.335-21.847-8.32-30.18 0a21.303 21.303 0 0 0-6.245 15.075v.03a21.266 21.266 0 0 0 6.245 15.075l15.093 15.086.002.002 15.085 15.077c8.32 8.335 21.846 8.335 30.166 0 8.32-8.334 8.32-21.845 0-30.165z" fill="#fcab40"/></svg>